<mxfile host="app.diagrams.net" modified="2023-10-30T23:55:51.401Z" agent="Mozilla/5.0 (Windows NT 10.0; Win64; x64) AppleWebKit/537.36 (KHTML, like Gecko) Chrome/118.0.0.0 Safari/537.36" version="22.0.8" etag="b-KhzT_RMUw0YgSSPs5y" type="github">
  <diagram name="Page-1" id="5qljPFEQiK7txCKyx_mJ">
    <mxGraphModel>
      <root>
        <mxCell id="0" />
        <mxCell id="1" parent="0" />
      </root>
    </mxGraphModel>
  </diagram>
</mxfile>
